<?xml version="1.0" encoding="utf-8"?>
<!-- Generator: Adobe Illustrator 28.1.0, SVG Export Plug-In . SVG Version: 6.00 Build 0)  -->
<svg version="1.1" id="Layer_1" xmlns="http://www.w3.org/2000/svg" xmlns:xlink="http://www.w3.org/1999/xlink" x="0px" y="0px"
	 viewBox="0 0 1000 1000" style="enable-background:new 0 0 1000 1000;" xml:space="preserve">
<style type="text/css">
	.st0{fill:#5D26BE;}
	.st1{fill:#FEFEFE;}
</style>
<g>
	<path class="st0" d="M93.6,395.1c0-52.2,0-104.4,0-156.6c0-14.3,1.5-28.5,6.3-42.1c14.9-42.4,43.9-70.7,86.6-84.4
		c62.9-20.3,125.9-40.1,188.8-60.1c29.6-9.4,59.1-18.8,88.8-27.9c17.3-5.3,35.2-7.5,53.2-4.5c8.4,1.4,16.8,3.3,24.9,5.8
		c51.3,16.2,102.5,32.7,153.8,49c39.6,12.6,79.2,25.3,118.8,37.8c28.8,9.1,52,25.9,68.9,50.7c15.5,22.7,22.7,48.3,22.6,75.9
		c-0.1,40.5-0.1,81-0.1,121.5c0,59.6,0,119.2,0.1,178.8c0,18.9-1.1,37.6-4.5,56.2c-6.2,33.5-17.1,65.5-32.4,96
		c-28,55.5-66.8,102.6-112.8,143.9c-54.9,49.3-116.2,89-183.2,120c-13.7,6.3-27.6,12.1-41.7,17.7c-8.2,3.2-16.8,5.4-25.2,7.9
		c-4.5,1.4-8.9,1.1-13.5,0c-13.9-3.3-27.1-8.7-40.2-14.2C375.7,934.2,305.4,890.9,243,835c-36.9-33.1-69.2-70.2-95.4-112.5
		c-24.3-39.2-41.1-81.3-49.7-126.6c-3.6-18.8-4.4-37.9-4.4-57.1C93.6,490.9,93.6,443,93.6,395.1C93.6,395.1,93.6,395.1,93.6,395.1z
		 M148.7,568.7c-0.3-0.4-0.6-0.8-0.9-1.2c0.1,0.7,0.1,1.3,0.2,2c0,10.9,2.5,21.5,5.1,31.9c9.9,40.6,27.6,77.7,51.4,112
		c29.5,42.6,65.9,78.5,106.4,110.5c47.9,37.8,100.4,68.1,156.3,92.3c8.1,3.5,16.4,6.6,24.5,10c5.3,2.2,10.4,2.2,15.7,0
		c8.2-3.3,16.5-6.3,24.6-9.7c61.2-26.1,117.9-59.7,169.1-102.2c41.3-34.3,77.8-72.8,106.1-118.8c22.5-36.6,37.6-76,44.4-118.4
		c0.5-2.9,1.3-6,0.4-9c-0.6,0-1-0.1-1.2,0c-1.3,1.1-2.6,2.2-3.8,3.4c-19.5,20.5-40.9,38.9-63.2,56.2
		c-39.1,30.4-80.9,56.3-126.5,75.8c-40.2,17.2-81.7,30-125.6,33.8c-24.6,2.1-49,1.8-73.4-1.1c-32.4-3.8-63.6-12.7-94.1-24.1
		c-32.9-12.3-64.1-28.1-93.9-46.9c-41.4-26.1-79.9-55.7-114.6-90.4C153.6,572.5,151.1,570.7,148.7,568.7z M854,422.3
		c0-3.9,0-6.1,0-8.3c0-57.6,0-115.2,0-172.9c0-4-0.1-8-0.4-12c-2-29.2-27.3-58.9-49.8-65.2c-4.4-1.2-8.6-3-13-4.4
		C702,131,613.1,102.4,524.2,73.7c-15.4-5-30.6-5.2-46.1-0.2c-65.9,21.1-131.8,42-197.7,63.1c-27.1,8.7-54.1,17.6-81.3,26.3
		c-18.3,5.9-31.4,18.1-41.7,33.7c-9.3,14.1-11.9,30.1-12,46.5c-0.1,58.2,0,116.4,0,174.6c0,1.4,0.3,2.9,0.6,5.4
		c5.2-5.2,9.4-9.4,13.6-13.7c26-26.2,54.3-49.6,84.6-70.6c56.6-39.1,117.5-68.5,185.3-82.4c37.7-7.8,75.6-9.9,113.9-4.6
		c41.2,5.6,80.8,17,118.7,33.9C723,313,777.7,349.7,826.4,395.3C835.3,403.7,843.9,412.4,854,422.3z M675.5,367.8
		c-24.4,40.2-48.1,79.5-71.9,118.7c-0.4,0.6-1.3,0.9-2.6,1.7c-5.9-30.3-11.6-60.2-17.4-90c-5.8-29.9-11-59.8-17.6-89.5
		c-7.1-1.3-13.2-3.4-20.6-3c2.5,13.1,4.9,25.7,7.3,38.2c2.5,12.9,5.4,25.6,7.7,38.5c2.2,12.4,5.5,24.6,7,38.6
		c-47.9-37.5-94.5-74-141-110.4c-7.9,2.2-15.2,4.1-24,6.5c32.6,25.3,64,49.6,94.8,74.7c-0.6,0.8-0.7,1.1-0.9,1.2
		c-0.7,0.4-1.5,0.9-2.3,1.1c-66.7,14.7-133.5,29.4-200.2,44.1c-0.2,0-0.5-0.1-0.7-0.2c-0.2-0.1-0.4-0.4-0.9-0.8
		c1.9-9.1,5.3-17.8,9-26.4c10.8-24.9,25.9-46.8,44.4-66.6c1.2-1.3,2.1-2.8,3.1-4.2c-3.7,0.2-6.5,1.3-9.2,2.7
		c-26.6,13.2-51.8,28.8-75.9,46.1c-38.9,27.9-73.5,60.5-104.5,96.9c-2.2,2.5-3.9,5.4-5.9,8.3c1.9,2.6,3.2,4.8,4.9,6.7
		c10.7,11.8,21.2,24,32.5,35.2c26.5,26.5,55,50.5,86,71.6c18.9,12.8,38.2,24.8,58.5,35.2c1.6,0.8,3.4,1.1,5.1,1.7
		c-2.2-4.2-5.1-7.3-8-10.4c-1.3-1.4-2.7-2.8-3.9-4.3c-2.1-2.5-2.2-5.1-0.3-7.8c0.6-0.9,1.2-1.9,1.8-2.9
		c21.5-35.6,43.1-71.2,64.7-106.8c1-1.6,2.2-3.1,4.2-5.8c0.9,4.6,1.5,7.9,2.1,11.1c8.4,43.3,16.7,86.7,25.1,130
		c1.7,8.9,3.5,17.9,5.3,26.8c0.4,2.3,1,4.9,3.6,5.2c5.8,0.8,11.5,2.8,18,2.2c-6.6-36.3-14.4-71.8-20.4-109.3
		c4.4,3.3,7.6,5.5,10.7,7.9c31.7,24.7,63.4,49.5,95.1,74.3c9,7,18,14,27.1,20.9c1.7,1.3,4.2,3.2,5.8,2.8c6.8-1.5,14-1.9,21.2-5.9
		c-5.6-4.5-10.7-8.7-15.8-12.7c-23.4-18.3-46.8-36.5-70.1-54.7c-1.2-0.9-2.1-2.2-3.7-3.9c67-14.7,132.8-29.2,198.7-43.7
		c1.1-0.2,2.3-0.2,3.4-0.3c0.3,0,0.6,0,0.8,0.1c0.2,0.1,0.4,0.4,1.4,1.2c-4,16.2-10.8,31.7-19.4,46.4c-8.5,14.6-18.6,28.1-30.8,41
		c5.8-0.2,8.4-4,12.1-5.7c4.1-1.8,8.2-3.6,12.1-5.7c27.5-15.2,53.3-33,77.8-52.7c28.5-22.9,55.3-47.6,78.8-75.9
		c3.2-3.9,7-7.5,8.9-12.9c-2.4-3.1-4.5-6.5-7.2-9.4c-12.6-13.6-24.9-27.5-38-40.6c-27.2-27-57.2-50.7-89.6-71.2
		c-16.8-10.7-34.6-19.8-52.1-29.4c-2.3-1.3-4.7-3.5-8.2-2.1C659.2,349.2,667,358.1,675.5,367.8z"/>
	<path class="st1" d="M148,569.4c-0.1-0.7-0.1-1.3-0.2-2c0.3,0.4,0.6,0.8,0.9,1.2C148.5,568.9,148.2,569.2,148,569.4z"/>
	<path class="st0" d="M314.1,606.4c-24.4-34.9-37.2-97.8-26.5-146.5c43.8-9.4,87.6-20,133.1-28.8C384.9,490,349.8,547.8,314.1,606.4
		z"/>
	<path class="st0" d="M687.5,388.2c26,45.6,32.8,94.2,25.5,145.9c-44.5,9.6-88.6,19.2-133,28.8C582.5,556.2,682.1,394.4,687.5,388.2
		z"/>
</g>
</svg>
